<svg xmlns="http://www.w3.org/2000/svg" viewBox="0 0 24 24" role="img" aria-label="Pinterest logo">
  <path
    fill="#E60023"
    d="M12 0C5.37 0 0 5.37 0 12c0 4.99 3.05 9.26 7.39 11.06-.1-.94-.2-2.38 0-3.4.21-.93 1.34-5.95 1.34-5.95s-.34-.68-.34-1.68c0-1.57.91-2.74 2.05-2.74.97 0 1.43.73 1.43 1.6 0 .98-.62 2.44-.94 3.8-.27 1.12.57 2.03 1.69 2.03 2.03 0 3.4-2.61 3.4-5.7 0-2.35-1.58-4.11-4.46-4.11-3.25 0-5.28 2.42-5.28 5.13 0 .93.36 1.93.81 2.47.09.11.1.21.08.32-.08.35-.26 1.11-.3 1.26-.05.2-.17.25-.39.15-1.45-.67-2.35-2.76-2.35-4.45 0-3.62 2.63-6.95 7.58-6.95 3.98 0 7.09 2.84 7.09 6.64 0 3.96-2.48 7.15-5.93 7.15-1.16 0-2.25-.6-2.63-1.29l-.71 2.69c-.26 1-.96 2.25-1.43 3.01 1.07.33 2.2.5 3.38.5 6.63 0 12-5.37 12-12S18.63 0 12 0"
  />
</svg>
